<svg height="100" viewBox="0 0 100 100" width="100" xmlns="http://www.w3.org/2000/svg"><g fill="#fff" fill-rule="evenodd"><path d="m50.0004412 0c-27.6133165 0-50.0004412 22.3848726-50.0004412 49.9995588 0 27.6138038 22.3871247 50.0004412 50.0004412 50.0004412s49.9995588-22.3866374 49.9995588-50.0004412c0-27.6146862-22.3871247-49.9995588-49.9995588-49.9995588z" fill-rule="evenodd" height="100%" width="100%"/><path d="m50.000441.5c-27.33782 0-49.500441 22.161661-49.500441 49.499559 0 27.337492 22.163098 49.500441 49.500441 49.500441 27.337172 0 49.499559-22.162778 49.499559-49.500441 0-27.337763-22.162486-49.499559-49.499559-49.499559z"/></g><path d="m214.419 32.12c-.412-2.959-2.541-5.393-5.419-6.193l-92.24-25.652c-1.315-.366-2.704-.366-4.02 0l-92.24 25.652c-2.878.8-5.007 3.233-5.419 6.193-.535 3.847-12.74 94.743 18.565 139.961 31.268 45.164 77.395 56.738 79.343 57.209.579.14 1.169.209 1.761.209s1.182-.07 1.761-.209c1.949-.471 48.076-12.045 79.343-57.209 31.305-45.217 19.1-136.113 18.565-139.961zm-40.186 53.066-62.917 62.917c-1.464 1.464-3.384 2.197-5.303 2.197s-3.839-.732-5.303-2.197l-38.901-38.901c-1.407-1.406-2.197-3.314-2.197-5.303s.791-3.897 2.197-5.303l7.724-7.724c2.929-2.928 7.678-2.929 10.606 0l25.874 25.874 49.89-49.891c1.406-1.407 3.314-2.197 5.303-2.197s3.897.79 5.303 2.197l7.724 7.724c2.929 2.929 2.929 7.678 0 10.607z" fill="#a00" transform="matrix(.35691499 0 0 .35691499 9.044005 11.044095)"/></svg>