<svg height="100" viewBox="0 0 100 100" width="100" xmlns="http://www.w3.org/2000/svg"><g fill="#fff" fill-rule="evenodd"><path d="m50.0004412 0c-27.6133165 0-50.0004412 22.3848726-50.0004412 49.9995588 0 27.6138038 22.3871247 50.0004412 50.0004412 50.0004412s49.9995588-22.3866374 49.9995588-50.0004412c0-27.6146862-22.3871247-49.9995588-49.9995588-49.9995588z" fill-rule="evenodd" height="100%" width="100%"/><path d="m50.000441.5c-27.33782 0-49.500441 22.161661-49.500441 49.499559 0 27.337492 22.163098 49.500441 49.500441 49.500441 27.337172 0 49.499559-22.162778 49.499559-49.500441 0-27.337763-22.162486-49.499559-49.499559-49.499559z"/></g><g fill="#000080" transform="matrix(2.7040974 0 0 2.7040974 6.737294 6.735942)"><path d="m6.501 6.249c.44.335.892.654 1.361.939-.239.576-.451 1.184-.641 1.812h1.927c.11-.322.215-.649.34-.955.893.409 1.824.721 2.779.955h7.471c.967-.235 1.912-.554 2.812-.972.125.31.229.644.343.972h1.891c-.189-.629-.4-1.235-.641-1.812.471-.285.924-.604 1.36-.939.84.818 1.572 1.743 2.179 2.751h2.688c-2.604-5.318-8.057-9-14.368-9-6.313 0-11.764 3.682-14.367 9h2.686c.608-1.008 1.34-1.935 2.18-2.751zm17.608-1.176c-.246.176-.493.349-.75.509-.319-.587-.666-1.144-1.041-1.646.632.33 1.226.715 1.791 1.137zm-2.315 1.349c-.808.371-1.64.67-2.496.88-.239-1.728-.584-3.396-1.075-4.672 1.382.699 2.606 2.025 3.571 3.792zm-5.974-4.043c.061-.001.12-.008.182-.008s.121.007.182.008c.438.717.965 2.507 1.354 5.229-.509.06-1.021.098-1.535.098-.517 0-1.028-.038-1.535-.098.387-2.722.914-4.512 1.352-5.229zm-2.049.279c-.485 1.272-.827 2.927-1.065 4.645-.843-.206-1.661-.5-2.453-.86.961-1.751 2.168-3.077 3.518-3.785zm-4.087 1.278c-.374.502-.719 1.06-1.042 1.646-.256-.159-.503-.332-.749-.508.566-.423 1.159-.808 1.791-1.138z"/><path d="m25.503 25.752c-.438-.336-.894-.654-1.36-.941.237-.574.45-1.182.641-1.811h-1.891c-.109.328-.216.66-.341.971-.901-.418-1.848-.734-2.813-.971h-7.47c-.955.234-1.885.547-2.778.955-.127-.307-.231-.635-.342-.955h-1.926c.189.629.401 1.236.64 1.812-.47.285-.921.604-1.361.938-.839-.816-1.571-1.742-2.177-2.75h-2.687c2.603 5.316 8.054 9 14.366 9s11.764-3.684 14.367-9h-2.688c-.608 1.008-1.34 1.934-2.18 2.752zm-17.61 1.176c.246-.176.494-.35.749-.508.323.586.668 1.143 1.042 1.645-.632-.331-1.225-.715-1.791-1.137zm2.358-1.369c.792-.356 1.61-.653 2.453-.858.238 1.719.58 3.368 1.065 4.645-1.348-.711-2.555-2.039-3.518-3.787zm5.933 4.062c-.061.002-.12.008-.182.008s-.121-.006-.182-.008c-.438-.717-.966-2.508-1.354-5.229.507-.06 1.019-.099 1.535-.099.517 0 1.028.039 1.536.099-.391 2.721-.915 4.512-1.353 5.229zm2.039-.252c.491-1.275.836-2.943 1.075-4.672.856.211 1.688.51 2.496.881-.965 1.768-2.189 3.094-3.571 3.791zm4.095-1.305c.375-.504.722-1.062 1.041-1.646.257.16.504.334.75.51-.565.422-1.159.806-1.791 1.136z"/><path d="m4.795 19.18.637-2.236c.169-.596.299-1.183.416-1.977h.026c.13.78.247 1.354.403 1.977l.598 2.236h1.859l1.95-6.355h-1.936l-.546 2.521c-.143.729-.273 1.443-.364 2.171h-.026c-.13-.729-.299-1.441-.468-2.158l-.637-2.534h-1.56l-.676 2.612c-.156.623-.338 1.353-.468 2.08h-.026c-.104-.729-.234-1.431-.364-2.094l-.507-2.601h-2.016l1.846 6.357h1.859z"/><path d="m18.314 15.344c-.145.729-.272 1.443-.362 2.172h-.027c-.129-.729-.299-1.442-.467-2.159l-.64-2.534h-1.56l-.676 2.612c-.156.624-.338 1.353-.468 2.081h-.026c-.104-.729-.234-1.432-.364-2.095l-.507-2.601h-2.015l1.846 6.357h1.859l.637-2.235c.169-.599.299-1.184.416-1.978h.026c.13.78.248 1.354.404 1.978l.598 2.235h1.859l1.947-6.357h-1.938z"/><path d="m28.43 15.344c-.144.729-.273 1.443-.363 2.172h-.025c-.129-.729-.3-1.442-.469-2.159l-.637-2.534h-1.562l-.677 2.612c-.155.624-.338 1.353-.469 2.081h-.024c-.104-.729-.233-1.432-.363-2.095l-.508-2.601h-2.017l1.849 6.357h1.856l.64-2.235c.168-.599.299-1.184.416-1.978h.024c.129.78.246 1.354.402 1.978l.598 2.235h1.859l1.949-6.357h-1.938z"/></g></svg>